<svg width="24" height="24" viewBox="0 0 24 24" fill="none" xmlns="http://www.w3.org/2000/svg">
<path d="M11.25 12C11.25 12.2967 11.162 12.5867 10.9972 12.8334C10.8324 13.0801 10.5981 13.2723 10.324 13.3859C10.0499 13.4994 9.74832 13.5291 9.45735 13.4712C9.16638 13.4133 8.89911 13.2705 8.68933 13.0607C8.47955 12.8509 8.33669 12.5836 8.27881 12.2927C8.22093 12.0017 8.25064 11.7001 8.36417 11.426C8.4777 11.1519 8.66996 10.9177 8.91663 10.7528C9.16331 10.588 9.45332 10.5 9.74999 10.5C10.1478 10.5 10.5293 10.6581 10.8106 10.9394C11.092 11.2207 11.25 11.6022 11.25 12ZM14.25 10.5C13.9533 10.5 13.6633 10.588 13.4166 10.7528C13.17 10.9177 12.9777 11.1519 12.8642 11.426C12.7506 11.7001 12.7209 12.0017 12.7788 12.2927C12.8367 12.5836 12.9795 12.8509 13.1893 13.0607C13.3991 13.2705 13.6664 13.4133 13.9574 13.4712C14.2483 13.5291 14.5499 13.4994 14.824 13.3859C15.0981 13.2723 15.3324 13.0801 15.4972 12.8334C15.662 12.5867 15.75 12.2967 15.75 12C15.75 11.6022 15.592 11.2207 15.3106 10.9394C15.0293 10.6581 14.6478 10.5 14.25 10.5ZM22.125 12C22.1254 13.7344 21.6802 15.4397 20.8322 16.9526C19.9843 18.4655 18.7619 19.7353 17.2823 20.6401C15.8027 21.5449 14.1154 22.0545 12.3823 22.12C10.6492 22.1855 8.92835 21.8047 7.38468 21.0141L4.34436 22.0313C4.01339 22.1428 3.65784 22.1597 3.31778 22.08C2.97773 22.0004 2.66669 21.8273 2.41972 21.5803C2.17275 21.3333 1.99967 21.0223 1.91999 20.6822C1.84031 20.3422 1.85719 19.9866 1.96874 19.6557L2.98218 16.6154C2.28626 15.2522 1.90844 13.749 1.87712 12.2188C1.84579 10.6886 2.16179 9.17122 2.80134 7.78072C3.44089 6.39023 4.38735 5.16282 5.56956 4.19078C6.75178 3.21874 8.13898 2.52736 9.62687 2.16864C11.1148 1.80991 12.6646 1.79316 14.1599 2.11966C15.6552 2.44616 17.057 3.1074 18.2599 4.05367C19.4629 4.99994 20.4356 6.20661 21.1051 7.58296C21.7745 8.95931 22.1232 10.4695 22.125 12ZM19.875 12C19.8745 10.7921 19.5962 9.60048 19.0615 8.51733C18.5269 7.43417 17.7502 6.48853 16.7916 5.75356C15.833 5.01858 14.7182 4.51398 13.5334 4.27878C12.3486 4.04357 11.1255 4.08408 9.95888 4.39716C8.79223 4.71024 7.71324 5.28751 6.80537 6.0843C5.89751 6.88109 5.18511 7.87605 4.72328 8.99221C4.26146 10.1084 4.06258 11.3158 4.14205 12.5211C4.22151 13.7264 4.57718 14.8973 5.18155 15.9432C5.26143 16.0811 5.31109 16.2344 5.32726 16.3929C5.34342 16.5515 5.32571 16.7117 5.2753 16.8629L4.34436 19.6557L7.13718 18.7247C7.25206 18.6865 7.37233 18.6668 7.49343 18.6666C7.69101 18.667 7.88502 18.7193 8.05593 18.8185C9.25313 19.5112 10.6117 19.8764 11.9949 19.8773C13.3781 19.8782 14.7371 19.5148 15.9352 18.8236C17.1333 18.1324 18.1282 17.1378 18.8198 15.94C19.5115 14.7421 19.8754 13.3832 19.875 12Z" fill="#2563EB"/>
</svg>
