<svg width="24" height="24" viewBox="0 0 24 24" fill="none" xmlns="http://www.w3.org/2000/svg">
<path d="M20.6972 7.83471L18.7116 4.40627C18.3364 3.75935 17.7201 3.28755 16.9976 3.09425C16.2752 2.90094 15.5056 3.00191 14.8575 3.37502C14.6932 3.46946 14.5387 3.58 14.3962 3.70502L13.5 2.15627C13.2696 1.75988 12.9463 1.42547 12.5579 1.18184C12.1695 0.93822 11.7277 0.792701 11.2705 0.757826C10.8134 0.722951 10.3546 0.799768 9.93372 0.981655C9.51286 1.16354 9.14254 1.44504 8.85469 1.8019C8.43656 1.59177 7.97285 1.48864 7.50508 1.50173C7.03731 1.51482 6.58009 1.64372 6.17437 1.8769C5.58191 2.21636 5.13344 2.76008 4.91291 3.40632C4.69238 4.05255 4.7149 4.757 4.97625 5.38783C4.78835 5.44754 4.60734 5.52705 4.43625 5.62502C4.116 5.80954 3.83526 6.05538 3.61008 6.34847C3.38491 6.64157 3.21971 6.97617 3.12393 7.33315C3.02816 7.69013 3.00368 8.06249 3.05191 8.42893C3.10014 8.79538 3.22012 9.14873 3.405 9.46877L3.43312 9.51752C3.25018 9.57725 3.07368 9.65514 2.90625 9.75002C2.586 9.93454 2.30526 10.1804 2.08008 10.4735C1.85491 10.7666 1.68971 11.1012 1.59393 11.4581C1.49816 11.8151 1.47368 12.1875 1.52191 12.5539C1.57014 12.9204 1.69012 13.2737 1.875 13.5938L5.18719 19.3125C6.24002 21.1217 7.96627 22.4406 9.98862 22.9808C12.011 23.521 14.1649 23.2386 15.9797 22.1953C16.8791 21.6816 17.6677 20.9944 18.2996 20.1737C18.9316 19.3529 19.3944 18.415 19.6612 17.4141C19.6978 17.2781 19.7297 17.1431 19.755 17.0063C20.8542 15.7696 21.5367 14.2185 21.7058 12.5725C21.8749 10.9265 21.522 9.26908 20.6972 7.83471ZM15.7228 5.66721C15.7514 5.55952 15.8114 5.46275 15.8951 5.38918C15.9788 5.31562 16.0825 5.26857 16.1929 5.25401C16.3034 5.23945 16.4157 5.25803 16.5156 5.30739C16.6155 5.35675 16.6985 5.43467 16.7541 5.53127L18.7397 8.95971C19.3782 10.0647 19.6209 11.3544 19.4278 12.616C19.2758 12.2087 19.0908 11.8146 18.8747 11.4375L15.7809 6.09377C15.7434 6.03009 15.719 5.95957 15.709 5.88633C15.699 5.8131 15.7037 5.73861 15.7228 5.66721ZM10.5094 3.41721C10.5284 3.34547 10.5614 3.27821 10.6066 3.2193C10.6517 3.16039 10.7081 3.11099 10.7724 3.07396C10.8367 3.03692 10.9077 3.01298 10.9813 3.0035C11.0549 2.99403 11.1297 2.99922 11.2012 3.01877C11.2728 3.03786 11.3398 3.07088 11.3985 3.11592C11.4572 3.16097 11.5065 3.21716 11.5434 3.28127L13.6369 6.89533C13.4592 6.95504 13.2877 7.03197 13.125 7.12502C12.9612 7.21942 12.8074 7.32997 12.6656 7.45502L10.5656 3.84377C10.4911 3.71466 10.4709 3.56123 10.5094 3.41721ZM7.04062 4.16721C7.05965 4.09558 7.09266 4.02841 7.13773 3.96957C7.1828 3.91073 7.23906 3.86138 7.30327 3.82436C7.36747 3.78733 7.43836 3.76336 7.51187 3.75382C7.58537 3.74428 7.66003 3.74936 7.73156 3.76877C7.87469 3.80846 7.99655 3.90271 8.07094 4.03127L8.42437 4.64815C8.24468 4.70616 8.0713 4.78217 7.90687 4.87502C7.74391 4.96902 7.59067 5.07893 7.44937 5.20315L7.095 4.59377C7.05775 4.52997 7.03359 4.45939 7.02394 4.38615C7.01428 4.31291 7.01931 4.23848 7.03875 4.16721H7.04062ZM14.8537 20.25C13.5569 20.9943 12.0183 21.1951 10.5739 20.8087C9.12944 20.4222 7.89663 19.4799 7.14469 18.1875L3.8325 12.4688C3.79552 12.4048 3.77153 12.3341 3.76188 12.2608C3.75223 12.1875 3.75713 12.113 3.77628 12.0416C3.79544 11.9703 3.82848 11.9033 3.87352 11.8447C3.91855 11.7861 3.9747 11.7369 4.03875 11.7C4.10284 11.6628 4.17366 11.6385 4.24715 11.6287C4.32063 11.6189 4.39533 11.6237 4.46695 11.6429C4.53856 11.6621 4.60569 11.6952 4.66445 11.7404C4.72322 11.7856 4.77247 11.842 4.80937 11.9063L6.71156 15.1875C6.86074 15.4467 7.10679 15.6361 7.39557 15.7139C7.68434 15.7917 7.9922 15.7516 8.2514 15.6024C8.51061 15.4532 8.69994 15.2071 8.77774 14.9184C8.85554 14.6296 8.81543 14.3217 8.66625 14.0625L5.35781 8.34377C5.28322 8.21435 5.26309 8.06061 5.30186 7.91635C5.34063 7.77209 5.43511 7.64914 5.56453 7.57455C5.69395 7.49996 5.8477 7.47983 5.99195 7.5186C6.13621 7.55737 6.25916 7.65185 6.33375 7.78127L9.32062 12.9375C9.46981 13.1967 9.71585 13.3861 10.0046 13.4639C10.2934 13.5417 10.6013 13.5016 10.8605 13.3524C11.1197 13.2032 11.309 12.9571 11.3868 12.6684C11.4646 12.3796 11.4245 12.0717 11.2753 11.8125L8.83125 7.59846V7.59377C8.75666 7.46398 8.73668 7.30987 8.77571 7.16535C8.81474 7.02083 8.90958 6.89774 9.03937 6.82315C9.16916 6.74855 9.32327 6.72858 9.46779 6.76761C9.61231 6.80664 9.73541 6.90148 9.81 7.03127L13.2384 12.9375C13.3876 13.196 13.6334 13.3846 13.9216 13.4619C14.2099 13.5391 14.517 13.4987 14.7755 13.3496C15.0339 13.2004 15.2225 12.9546 15.2998 12.6664C15.3771 12.3781 15.3367 12.071 15.1875 11.8125L14.0109 9.78658C13.9778 9.72035 13.9579 9.64823 13.9526 9.57434C13.9473 9.50044 13.9566 9.42623 13.98 9.35594C14.0272 9.21396 14.1289 9.09656 14.2627 9.02955C14.3289 8.99637 14.401 8.97657 14.4749 8.97126C14.5488 8.96595 14.623 8.97525 14.6933 8.99863C14.8353 9.04583 14.9527 9.1475 15.0197 9.28127L16.92 12.5625C17.2896 13.2028 17.5293 13.9097 17.6255 14.6428C17.7217 15.3758 17.6724 16.1206 17.4805 16.8346C17.2886 17.5486 16.9579 18.2178 16.5071 18.8038C16.0564 19.3898 15.4946 19.8813 14.8537 20.25Z" fill="#2563EB"/>
</svg>
