<svg width="16" height="16" viewBox="0 0 16 16" fill="none" xmlns="http://www.w3.org/2000/svg">
<path d="M14.6612 7.14887L11.8425 9.60887L12.6869 13.2714C12.7315 13.4628 12.7188 13.6632 12.6502 13.8475C12.5816 14.0317 12.4602 14.1917 12.3012 14.3073C12.1422 14.423 11.9527 14.4892 11.7563 14.4977C11.5598 14.5062 11.3653 14.4566 11.1969 14.3551L8.00249 12.4176L4.81499 14.3551C4.64659 14.4566 4.45202 14.5062 4.25559 14.4977C4.05917 14.4892 3.86961 14.423 3.71061 14.3073C3.55161 14.1917 3.43023 14.0317 3.36164 13.8475C3.29305 13.6632 3.2803 13.4628 3.32499 13.2714L4.16811 9.61262L1.34874 7.14887C1.19962 7.02026 1.09179 6.85048 1.03877 6.66084C0.985754 6.47119 0.98991 6.27011 1.05072 6.08281C1.11153 5.89552 1.22628 5.73034 1.38058 5.608C1.53489 5.48567 1.72188 5.41161 1.91811 5.39512L5.63436 5.07324L7.08499 1.61324C7.16074 1.43169 7.28852 1.27661 7.45223 1.16753C7.61594 1.05845 7.80826 1.00024 8.00499 1.00024C8.20171 1.00024 8.39403 1.05845 8.55774 1.16753C8.72146 1.27661 8.84923 1.43169 8.92499 1.61324L10.38 5.07324L14.095 5.39512C14.2912 5.41161 14.4782 5.48567 14.6325 5.608C14.7868 5.73034 14.9016 5.89552 14.9624 6.08281C15.0232 6.27011 15.0273 6.47119 14.9743 6.66084C14.9213 6.85048 14.8135 7.02026 14.6644 7.14887H14.6612Z" fill="#FACC15"/>
</svg>
