<svg width="17" height="16" viewBox="0 0 17 16" fill="none" xmlns="http://www.w3.org/2000/svg">
<path d="M15.615 6.08074C15.5545 5.89411 15.4403 5.72941 15.2869 5.60717C15.1334 5.48492 14.9473 5.41052 14.7519 5.39324L11.04 5.07324L9.585 1.61324C9.50925 1.43169 9.38147 1.27661 9.21776 1.16753C9.05405 1.05845 8.86173 1.00024 8.665 1.00024C8.46828 1.00024 8.27596 1.05845 8.11225 1.16753C7.94853 1.27661 7.82076 1.43169 7.745 1.61324L6.29438 5.07324L2.57813 5.39512C2.3819 5.41161 2.19491 5.48567 2.0406 5.608C1.8863 5.73034 1.77154 5.89552 1.71074 6.08281C1.64993 6.27011 1.64577 6.47119 1.69879 6.66084C1.75181 6.85048 1.85963 7.02026 2.00875 7.14887L4.82813 9.61262L3.98313 13.2714C3.93845 13.4628 3.9512 13.6632 4.01978 13.8475C4.08837 14.0317 4.20975 14.1917 4.36875 14.3073C4.52775 14.423 4.71731 14.4892 4.91374 14.4977C5.11016 14.5062 5.30474 14.4566 5.47313 14.3551L8.66063 12.4176L11.855 14.3551C12.0234 14.4566 12.218 14.5062 12.4144 14.4977C12.6108 14.4892 12.8004 14.423 12.9594 14.3073C13.1184 14.1917 13.2398 14.0317 13.3083 13.8475C13.3769 13.6632 13.3897 13.4628 13.345 13.2714L12.5006 9.60887L15.3194 7.14887C15.4685 7.01981 15.5761 6.84956 15.6287 6.65951C15.6813 6.46946 15.6765 6.2681 15.615 6.08074ZM14.6638 6.39324L11.845 8.85324C11.7078 8.97258 11.6058 9.12706 11.5498 9.30006C11.4939 9.47307 11.4862 9.65806 11.5275 9.83512L12.3744 13.5001L9.1825 11.5626C9.02678 11.4678 8.84796 11.4176 8.66563 11.4176C8.4833 11.4176 8.30448 11.4678 8.14875 11.5626L4.96125 13.5001L5.8025 9.83762C5.84385 9.66055 5.83613 9.47557 5.78019 9.30256C5.72425 9.12956 5.62219 8.97508 5.485 8.85574L2.665 6.39699C2.66478 6.39513 2.66478 6.39324 2.665 6.39137L6.38 6.07012C6.56138 6.05413 6.73495 5.98893 6.88199 5.88154C7.02903 5.77415 7.14396 5.62865 7.21438 5.46074L8.665 2.00512L10.115 5.46074C10.1854 5.62865 10.3004 5.77415 10.4474 5.88154C10.5944 5.98893 10.768 6.05413 10.9494 6.07012L14.665 6.39137C14.665 6.39137 14.665 6.39512 14.665 6.39574L14.6638 6.39324Z" fill="#CBD5E1"/>
</svg>
