<svg width="24" height="24" viewBox="0 0 24 24" fill="none" xmlns="http://www.w3.org/2000/svg">
<path d="M22.5 16.875H22.125V5.73095L22.7353 5.60063C22.8818 5.57196 23.0212 5.51439 23.1453 5.43131C23.2693 5.34822 23.3756 5.24127 23.4579 5.11669C23.5402 4.99211 23.5969 4.85239 23.6246 4.70568C23.6524 4.55897 23.6506 4.40821 23.6195 4.26217C23.5884 4.11614 23.5286 3.97776 23.4434 3.8551C23.3583 3.73244 23.2496 3.62796 23.1236 3.54774C22.9977 3.46752 22.8571 3.41317 22.7099 3.38786C22.5628 3.36255 22.4121 3.36679 22.2666 3.40032L1.26656 7.90032C0.995421 7.95882 0.755451 8.11543 0.592735 8.34007C0.430019 8.56472 0.35603 8.84155 0.384977 9.11742C0.413924 9.39328 0.543766 9.64873 0.749567 9.8347C0.955369 10.0207 1.22262 10.1241 1.5 10.125C1.5797 10.1252 1.65919 10.117 1.73719 10.1006L1.87594 10.0706V16.875H1.5C1.20163 16.875 0.915483 16.9935 0.704505 17.2045C0.493526 17.4155 0.375 17.7016 0.375 18C0.375 18.2984 0.493526 18.5845 0.704505 18.7955C0.915483 19.0065 1.20163 19.125 1.5 19.125H22.5C22.7984 19.125 23.0845 19.0065 23.2955 18.7955C23.5065 18.5845 23.625 18.2984 23.625 18C23.625 17.7016 23.5065 17.4155 23.2955 17.2045C23.0845 16.9935 22.7984 16.875 22.5 16.875ZM4.125 9.58782L19.875 6.21282V16.875H18V11.25C18 10.9516 17.8815 10.6655 17.6705 10.4545C17.4595 10.2435 17.1734 10.125 16.875 10.125H7.125C6.82663 10.125 6.54048 10.2435 6.3295 10.4545C6.11853 10.6655 6 10.9516 6 11.25V16.875H4.125V9.58782ZM15.75 13.5H8.25V12.375H15.75V13.5ZM8.25 15.75H15.75V16.875H8.25V15.75Z" fill="#2563EB"/>
</svg>
